<?xml version="1.0" encoding="UTF-8"?>
<svg id="Layer_1" xmlns="http://www.w3.org/2000/svg" version="1.1" viewBox="0 0 1024 1024">
  <!-- Generator: Adobe Illustrator 30.2.1, SVG Export Plug-In . SVG Version: 2.1.1 Build 1)  -->
  <defs>
    <style>
      .st0 {
        fill: #e7f6ed;
      }

      .st1 {
        fill: #ecf5f0;
      }

      .st2 {
        fill: #eef7f0;
      }

      .st3 {
        fill: #f9fcfa;
      }

      .st4 {
        fill: #eef7ef;
      }

      .st5 {
        fill: #edf7ef;
      }

      .st6 {
        fill: #702a83;
      }

      .st7 {
        fill: #fefefe;
      }

      .st8 {
        fill: #506471;
      }

      .st9 {
        fill: #ebf5f0;
      }
    </style>
  </defs>
  <path class="st7" d="M0,0h1024v1024H0V0Z"/>
  <path class="st6" d="M456,235c14.68-.12,29.36-.2,44.04-.26,6.82-.03,13.63-.06,20.45-.12,6.57-.06,13.15-.08,19.72-.1,2.51,0,5.02-.03,7.54-.05,3.51-.04,7.02-.04,10.53-.04q1.57-.03,3.17-.05c2.61.02,4.99.07,7.54.62q2.07,2.33,3,5c.55,1.07,1.1,2.13,1.66,3.23.62,1.24,1.23,2.49,1.85,3.73.71,1.43,1.43,2.87,2.14,4.3.38.77.76,1.53,1.15,2.32,2.12,4.27,4.27,8.53,6.41,12.79q17.26,34.41,23.73,48.14c4.63,9.79,9.53,19.44,14.39,29.12,4.72,9.39,9.38,18.8,13.83,28.32,3.47,7.42,7.15,14.73,10.84,22.04,1.77,3.52,3.54,7.04,5.31,10.56.4.79.8,1.59,1.22,2.41,3.28,6.53,6.43,13.12,9.58,19.72,5.34,11.2,10.79,22.35,16.26,33.49,2.74,5.57,5.47,11.14,8.2,16.71.55,1.12,1.1,2.23,1.66,3.38,7.06,14.39,14.08,28.8,21.1,43.21,3,6.15,6,12.29,9,18.44q15,30.7,21.58,44.6c3.19,6.73,6.5,13.38,9.85,20.03,2.69,5.34,5.37,10.68,8.05,16.02q.46.91.92,1.85c4.36,8.71,8.61,17.46,12.77,26.26,2.98,6.27,6.06,12.49,9.17,18.7.41.82.82,1.64,1.25,2.48,2.07,4.12,4.15,8.24,6.23,12.35.76,1.51,1.53,3.03,2.29,4.54q.54,1.06,1.09,2.13,2.46,4.9,2.46,7.13c4.21-.75,7.84-1.55,10.59-5,1.31-2.48,2.42-4.97,3.48-7.57.39-.88.78-1.75,1.18-2.65q2.02-4.24,2.76-8.78c-.83-.52-1.65-1.03-2.5-1.56q-2.5-2.44-2.83-4.7c.02-2.26.12-4.48.33-6.74h-5v-4h6c.29-.64.58-1.28.88-1.94q1.12-2.06,3.12-3.06c4.2-.49,7.78-.7,11.5,1.44,3.37,5.76,2.62,13.07,2.5,19.56,1.32.33,2.64.66,4,1,.08-.76.17-1.53.25-2.31.93-3.33,1.8-3.95,4.75-5.69q2.73-.4,5.62-.38c.96,0,1.92-.02,2.91-.02q1.22.2,2.46.4c2.5,3.75,2.72,6.91,3.34,11.31q.46,2.71,2.12,4.49c2.35,3.36,2.63,6.95,3.23,10.95.13.77.26,1.55.39,2.34.8,5.02,1.24,9.82.92,14.91-2.53,3.22-4.11,4.7-8,6-2.33.04-4.67.04-7,0q.03,1.64.06,3.31-.06,3.69-1.06,6.69c-.92,12.38.67,22.43,5,34,.57,1.6,1.13,3.21,1.69,4.81.24.67.48,1.35.73,2.04q.59,2.14.86,4.88.56,5.86,4,10.45c2.52,1.74,5.08,3.28,7.72,4.82.66.66,1.32,1.32,2,2-8.21-1.53-15.84-4.35-23.62-7.31q-1.04-.39-2.1-.79-83.03-31.39-94.84-49.33c-1.82-4.5-2.13-6.74-1.44-11.56,3.95-6.04,9.29-8.73,15.56-12.06q8.35-4.13,14.44-10.94c.46-3.7.37-6.11-1.06-9.56-8.88-11.17-22.67-16.42-35.6-21.38-3.88-1.49-7.75-3.02-11.62-4.56-.76-.3-1.52-.6-2.3-.91-28.93-11.54-52.46-27.11-68.42-54.59-.61-1.04-1.21-2.09-1.84-3.16-7.4-13.78-12.49-29.45-15.16-44.84,3.16,1.54,5.86,3.27,8.69,5.38,4.13,3.04,8.3,6.03,12.5,8.97,8.11,5.67,16.03,11.54,23.81,17.65-1.51-3.48-3.55-5.87-6.12-8.62-3.76-4.1-7.27-8.31-10.71-12.68-2.48-3.09-5.03-6.12-7.6-9.13-3.38-3.97-6.72-7.96-10-12-3.47-4.27-7.03-8.46-10.62-12.62-4.78-5.54-9.41-11.19-13.94-16.94-1.33-1.67-2.67-3.33-4-5-3.13.58-4.76,1.39-6.99,3.66-.54.55-1.08,1.09-1.64,1.66q-.83.86-1.68,1.74c-.54.55-1.09,1.1-1.65,1.66-2.81,2.86-5.49,5.78-8.09,8.83-5.61,6.48-11.81,12.41-17.89,18.44-1.27,1.26-2.54,2.53-3.81,3.79-3.08,3.07-6.17,6.14-9.26,9.21-4.21-1.89-6.66-4.76-9.56-8.25-.52-.62-1.05-1.24-1.58-1.88-4.11-4.9-8.06-9.91-11.98-14.97-3.16-4.06-6.47-7.92-9.93-11.73-3.32-3.72-6.44-7.61-9.57-11.49-1.61-1.99-3.22-3.97-4.83-5.95-3.18-3.91-6.36-7.83-9.54-11.74-2.98,1.33-4.94,2.74-7.14,5.13-.59.63-1.17,1.27-1.78,1.92-.62.68-1.25,1.37-1.89,2.07-1.35,1.46-2.7,2.92-4.05,4.38q-1.03,1.12-2.08,2.27c-3.16,3.43-6.36,6.83-9.55,10.23-1.25,1.33-2.5,2.67-3.75,4q-22.5,24-24.38,26c-1.24,1.32-2.48,2.65-3.72,3.97-3.27,3.49-6.54,6.97-9.82,10.45-.68.72-1.37,1.45-2.07,2.2-1.31,1.39-2.62,2.77-3.93,4.16-.59.63-1.18,1.25-1.79,1.9-.52.55-1.03,1.1-1.57,1.66-1.61,1.81-3.05,3.71-4.48,5.67.59-.4,1.18-.79,1.79-1.2,11.55-7.73,23.12-15.43,34.74-23.05,1.14-.75,2.28-1.5,3.42-2.25,1.6-1.05,3.21-2.1,4.81-3.15.92-.6,1.83-1.2,2.77-1.82,2.11-1.32,4.21-2.47,6.46-3.53-.5,7.03-1.04,14.02-2,21,.56-.57,1.11-1.14,1.69-1.72,4.28-4.33,8.62-8.48,13.26-12.44,3.22-2.88,6.19-6,9.17-9.12q1.88-1.72,3.88-1.72c1.29,6.87,2.57,13.74,3.85,20.61.43,2.34.87,4.67,1.31,7.01.63,3.36,1.25,6.72,1.88,10.08q.3,1.56.6,3.15c.88,4.78,1.63,9.27,1.37,14.15.75-.23,1.5-.46,2.27-.69q1.48-.43,2.98-.87c.97-.29,1.95-.58,2.95-.88,2.83-.56,4.1-.35,6.8.44-25.87,16.46-53.09,27.14-83,34q-1.2.28-2.43.57c-14.77,3.37-29.62,5.44-44.63,7.37-46.99,6.06-103.09,13.74-141.94,43.06-.65.48-1.31.97-1.98,1.47-4.28,3.34-5.76,5.56-6.45,10.91.54,4.44,2.24,6.68,5.44,9.62,2.7,1.76,5.53,3.17,8.44,4.56,6.59,3.22,12.39,6.17,16.56,12.44.44,5.44.38,8.53-3,13-.56.77-1.11,1.55-1.68,2.34-2.7,3.1-5.71,5.26-9.13,7.47-.67.44-1.33.87-2.02,1.32-26.06,16.75-56.04,27.67-85.17,37.87-3.58,1.3-7.12,2.63-10.63,4.11-.9.38-1.81.76-2.74,1.14-.83.36-1.67.71-2.52,1.08q-2.1.67-4.1-.33c1.62-1.17,3.25-2.34,4.88-3.5.9-.65,1.81-1.3,2.74-1.97q2.38-1.53,4.38-1.53c.03-.67.06-1.34.1-2.03.47-7.05,1.98-13.05,4.4-19.66,3.26-8.98,4.64-16.55,4.62-26.19,0-1.3,0-2.59,0-3.93q.09-3.09-1.13-5.2c-.13-2.67-.04-5.32,0-8-1.18.12-2.35.25-3.56.38-4.46-.02-6.78-1.55-10.19-4.28-3.44-5.77-.66-14.29.62-20.47q.26-1.35.53-2.73c.17-.86.35-1.72.53-2.61.16-.78.31-1.55.48-2.35q.59-1.94,2.59-3.94c.56-1.98,1.05-3.99,1.5-6q1.28-5.78,3.5-8c4.92-.66,9.57-.35,14,2q1,1,1.06,3.56c-.02.8-.04,1.61-.06,2.44q2.62-1,5-3,.46-3.26.06-6.88-.48-6.41,1.66-10.04c2.51-2.3,3.38-2.75,6.72-2.65,4.37.24,6.33,1.59,9.56,4.56q3.18,1.26,6,2v2c-1.98.33-3.96.66-6,1,.06.6.12,1.21.18,1.83.14,2.48.18,4.72-.18,7.17q-2.5,2.56-5,4c1.72,4.53,3.8,8.85,5.94,13.19q.52,1.09,1.05,2.19t1.04,2.1c.31.63.61,1.26.93,1.9q1.1,1.94,4.04,3.62c1.99.39,3.99.73,6,1,.36-1.21.72-2.43,1.1-3.68,2.16-6.47,5.29-12.45,8.37-18.52.64-1.28,1.28-2.55,1.93-3.83,1.69-3.36,3.38-6.71,5.08-10.06,3.01-5.95,6-11.9,9-17.85q.49-.97.99-1.96c4.71-9.35,9.3-18.75,13.79-28.21,3.78-7.95,7.69-15.83,11.65-23.69,5.88-11.66,11.68-23.35,17.27-35.16,3.19-6.72,6.49-13.39,9.84-20.04,6.29-12.51,12.32-25.13,18.32-37.79.87-1.84,1.74-3.67,2.61-5.51.79-1.67,1.58-3.33,2.37-5,2.4-5.05,4.87-10.06,7.37-15.06.35-.7.7-1.4,1.06-2.12,1.09-2.17,2.18-4.35,3.27-6.52.33-.65.65-1.31.99-1.98,1.61-3.2,3.21-6.41,4.82-9.61,2.53-5.04,5.05-10.09,7.58-15.13,1.9-3.79,3.8-7.58,5.7-11.37,8.01-15.98,15.97-31.97,23.63-48.12,3.5-7.37,7.19-14.65,10.88-21.93,3.64-7.22,7.15-14.49,10.62-21.79,6.06-12.74,12.38-25.34,18.73-37.94,1.45-2.87,2.89-5.75,4.33-8.62.47-.94.95-1.89,1.44-2.86,3.83-7.66,7.54-15.38,11.17-23.14,4.08-8.65,8.6-17.07,13.12-25.5Z"/>
  <path class="st8" d="M511,237c3.6,1.2,3.71,1.8,5.35,5.06.44.87.88,1.73,1.34,2.63.47.95.94,1.9,1.43,2.88q.75,1.48,1.52,2.99c1.61,3.18,3.21,6.37,4.8,9.56,1.56,3.1,3.12,6.19,4.68,9.29,1.05,2.07,2.09,4.15,3.13,6.22,7.05,13.99,14.36,27.85,21.66,41.71,4.2,8,8.27,16.02,12.04,24.23,2.27,4.91,4.73,9.68,7.28,14.45,4.6,8.66,9.01,17.4,13.38,26.17q.51,1.01,1.02,2.05c2.81,5.63,5.61,11.26,8.41,16.9,2.44,4.89,4.87,9.79,7.31,14.68.34.68.67,1.35,1.02,2.05,4.28,8.57,8.64,17.09,13.14,25.54,2.97,5.6,5.78,11.27,8.54,16.97q12.23,25.72,28.52,48.95c2.07,2.48,3.98,5.07,5.9,7.67.69.92,1.39,1.85,2.11,2.8,3.09,4.13,6.15,8.29,9.21,12.45,4.37,5.94,8.76,11.86,13.19,17.75,5.05,6.7,10.03,13.45,15,20.21,3.16,4.3,6.35,8.59,9.56,12.85,4.24,5.64,8.37,11.35,12.49,17.08,3.56,4.95,7.15,9.88,10.76,14.8q.67.91,1.35,1.84c2.08,2.84,4.18,5.67,6.3,8.49.73.98,1.47,1.97,2.23,2.98q.96,1.28,1.95,2.58,1.36,2.17,1.36,5.17c-7.05-7.65-14.02-15.34-20.78-23.25-1.03-1.21-2.07-2.42-3.1-3.62q-.78-.91-1.57-1.84c-3.79-4.42-7.65-8.76-11.55-13.08-3.99-4.41-7.89-8.91-11.75-13.43-4.74-5.56-9.49-11.09-14.44-16.46-3.21-3.5-6.27-7.06-9.25-10.75-4.14-5.13-8.54-9.97-13.01-14.8-3.26-3.53-6.42-7.12-9.55-10.76-.42-.49-.85-.98-1.28-1.49-4.55-5.29-9.1-10.58-13.58-15.92-.92-1.09-1.84-2.19-2.76-3.28-.44-.53-.89-1.06-1.35-1.6-3.93-4.66-8.05-9.13-12.23-13.56q-1.8-2.14-1.8-4.14c-5.08.35-7.52,3.08-10.81,6.62-1.07,1.11-2.14,2.22-3.21,3.32q-.77.8-1.56,1.61c-1.73,1.75-3.54,3.36-5.42,4.94-4.09,3.47-7.8,7.28-11.57,11.09-3.41,3.43-6.92,6.67-10.61,9.81-3.09,2.71-5.96,5.65-8.82,8.6-3.01-1.32-4.79-2.62-6.81-5.2-.51-.64-1.02-1.29-1.55-1.95-.54-.69-1.08-1.38-1.64-2.1-1.16-1.46-2.32-2.92-3.48-4.37-.59-.73-1.17-1.47-1.78-2.23-2.6-3.21-5.29-6.34-7.99-9.47-4.24-4.9-8.38-9.87-12.46-14.9-2.6-3.17-5.25-6.29-7.91-9.41-4.27-5.02-8.4-10.12-12.38-15.38-3.68,1.51-5.72,3.65-8.31,6.62-.79.9-1.59,1.81-2.41,2.74q-1.13,1.3-2.28,2.63-.85.96-1.72,1.95c-2.71,3.07-5.38,6.16-8.03,9.28-4.74,5.56-9.49,11.09-14.44,16.46-4.03,4.39-7.79,8.93-11.53,13.56-2.35,2.83-4.79,5.54-7.28,8.25-4.02,4.37-7.8,8.88-11.53,13.5-4.49,5.47-9.17,10.77-13.82,16.1-2.6,3-5.19,6.01-7.78,9.03-.49.57-.98,1.14-1.49,1.73-3.86,4.51-7.68,9.04-11.5,13.57-3.4,4.02-6.88,7.96-10.42,11.86q-1.54,1.66-2.46,3.71h-2v2h-2v2h-2c-.08.57-.17,1.13-.25,1.71-.97,2.97-2.55,4.57-4.68,6.85-2.26,2.44-4.21,4.66-6.06,7.44q-2.4.88-5.38,1.57c-1.09.26-2.17.51-3.29.78q-1.71.38-3.45.78c-1.12.26-2.23.53-3.38.8-4.57,1.06-9.07,2.1-13.73,2.57-3.72.5-6.84,1.44-10.36,2.68-4.33,1.5-8.74,2.7-13.15,3.95-.92.26-1.84.53-2.79.8-.89.25-1.78.51-2.7.77q-1.19.34-2.41.69c-2.44.64-4.88,1.15-7.35,1.62,1.57-5.26,3.86-9.97,6.32-14.86.44-.87.87-1.74,1.32-2.64,1.44-2.87,2.89-5.75,4.33-8.62,1.01-2.01,2.02-4.03,3.03-6.04,2.66-5.31,5.32-10.61,7.99-15.92,4.25-8.45,8.49-16.9,12.72-25.35,1.47-2.93,2.94-5.85,4.41-8.78,4.85-9.65,9.59-19.33,14.14-29.12,4.07-8.75,8.49-17.33,12.96-25.88,7.13-13.66,14-27.39,20.59-41.32,3.65-7.67,7.47-15.26,11.44-22.77,6.84-12.94,13.43-26,19.97-39.1.46-.92.92-1.83,1.39-2.78,3.34-6.69,6.68-13.39,10.01-20.08,3.35-6.72,6.7-13.44,10.05-20.16,1.32-2.64,2.63-5.28,3.94-7.92,4.55-9.13,9.19-18.2,13.97-27.22,3.59-6.77,7.03-13.61,10.43-20.47,1.7-3.44,3.42-6.88,5.13-10.32.34-.69.69-1.38,1.04-2.1,6.82-13.69,13.69-27.35,20.9-40.84,1.35-2.55,2.63-5.14,3.91-7.73Z"/>
  <path class="st8" d="M616,516h1c.11.78.23,1.56.35,2.36,2.7,17.96,6.15,35.29,11.65,52.64.29.91.57,1.82.87,2.76,3.72,11.63,8.23,22.55,14.13,33.24.35.64.7,1.28,1.05,1.93,5.33,9.66,11.64,17.84,18.95,26.07.8,1,1.6,2,2.43,3.04,13.34,15.37,32.98,23.16,51.14,31.13,4.97,2.18,9.92,4.39,14.8,6.77q1.5.73,3.02,1.46c4.11,2.52,6.94,5.6,9.6,9.6,0,4.24-.32,6.29-3.29,9.39-5.66,4.45-12.82,6.71-19.41,9.42-7.38,3.12-14.06,6.35-19.3,12.57-2.08,5.47-1.58,9.97.62,15.25,7.53,13.72,21.63,22.99,34.38,31.38.8.54,1.61,1.07,2.43,1.62,9.67,6.44,19.45,12.64,29.54,18.4,1.69.97,3.36,1.97,5.03,2.98v1h-67q-14.44-28.88-20.98-42.68c-2.29-4.81-4.61-9.6-6.95-14.39q-12.41-25.45-18.13-38.38c-3.05-6.87-6.37-13.57-9.78-20.27-7.81-15.37-15.41-30.84-22.8-46.42-1.89-3.98-3.79-7.96-5.68-11.94-1.89-3.97-3.79-7.95-5.68-11.92q-2.95-.32-4.56,1.28c-.55.59-1.11,1.19-1.68,1.8q-.94.99-1.91,2c-.68.72-1.35,1.43-2.05,2.17-48.01,49.08-123.81,62.5-189.34,69.85q-1.17.13-2.37.27c-3.73.42-7.47.82-11.21,1.21q-24.02,2.19-43.22,15.15c-2.78,3.77-4.8,7.81-6.81,12.03-.46.94-.92,1.88-1.39,2.85-4.33,8.94-8.48,17.96-12.63,26.99-3.85,8.34-7.87,16.58-12.01,24.77-3.28,6.49-6.42,13.03-9.46,19.63q-2.27,4.91-3.37,6.01c-2.06.09-4.11.12-6.17.11q-.97,0-1.95,0c-2.14,0-4.27,0-6.41-.02-1.48,0-2.96,0-4.43,0-3.9,0-7.8-.01-11.69-.02-3.97-.01-7.95-.01-11.92-.02-7.8-.01-15.61-.03-23.41-.05,2.74-2.81,5.23-4.91,8.64-6.85.9-.52,1.8-1.03,2.72-1.57.95-.54,1.91-1.09,2.89-1.65,14.34-8.33,27.79-17.59,40.75-27.94q1.14-.89,2.3-1.79c7.05-5.76,13.66-13.12,15.01-22.32.25-4.2.03-7.16-2.56-10.57-5.55-5.6-13.21-8.22-20.32-11.29-.79-.35-1.59-.69-2.41-1.05-1.56-.68-3.13-1.34-4.71-2-4.84-2.07-8.53-4.3-12.32-7.98q-1.25-3.38-1-7c6.34-12.79,26.58-17.8,39-22,6.93-2.25,13.94-4.18,21-6,.96-.25,1.92-.5,2.91-.76,18.84-4.84,37.85-7.67,57.09-10.24.69-.09,1.37-.18,2.08-.28q11.59-1.55,17.31-2.29c16.76-2.17,33.19-4.96,49.61-8.99.89-.22,1.77-.43,2.69-.66,27.82-6.84,55.42-16.65,79.31-32.78.57-.38,1.14-.76,1.72-1.16,7.47-5.05,14.32-10.41,20.88-16.62q2.4-2.23,5.01-4.3c3.63-2.92,6.44-6.34,9.39-9.93.78-.94,1.55-1.88,2.36-2.85,9.37-11.61,16.25-24.25,21.64-38.15.56-1.27,1.12-2.54,1.69-3.81,1.39-3.37,2.38-6.67,3.31-10.19Z"/>
  <path class="st3" d="M511,237c3.6,1.2,3.71,1.8,5.35,5.06.44.87.88,1.73,1.34,2.63.47.95.94,1.9,1.43,2.88q.75,1.48,1.52,2.99c1.61,3.18,3.21,6.37,4.8,9.56,1.56,3.1,3.12,6.19,4.68,9.29,1.05,2.07,2.09,4.15,3.13,6.22,7.05,13.99,14.36,27.85,21.66,41.71,4.2,8,8.27,16.02,12.04,24.23,2.27,4.91,4.73,9.68,7.28,14.45,4.6,8.66,9.01,17.4,13.38,26.17q.51,1.01,1.02,2.05c2.81,5.63,5.61,11.26,8.41,16.9,2.44,4.89,4.87,9.79,7.31,14.68.34.68.67,1.35,1.02,2.05,4.28,8.57,8.64,17.09,13.14,25.54,2.97,5.6,5.78,11.27,8.54,16.97q12.23,25.72,28.52,48.95c2.07,2.48,3.98,5.07,5.9,7.67.69.92,1.39,1.85,2.11,2.8,3.09,4.13,6.15,8.29,9.21,12.45,4.37,5.94,8.76,11.86,13.19,17.75,5.05,6.7,10.03,13.45,15,20.21,3.16,4.3,6.35,8.59,9.56,12.85,4.24,5.64,8.37,11.35,12.49,17.08,3.56,4.95,7.15,9.88,10.76,14.8q.67.91,1.35,1.84c2.08,2.84,4.18,5.67,6.3,8.49.73.98,1.47,1.97,2.23,2.98q.96,1.28,1.95,2.58,1.36,2.17,1.36,5.17c-7.05-7.65-14.02-15.34-20.78-23.25-1.03-1.21-2.07-2.42-3.1-3.62q-.78-.91-1.57-1.84c-3.79-4.42-7.65-8.76-11.55-13.08-3.99-4.41-7.89-8.91-11.75-13.43-4.74-5.56-9.49-11.09-14.44-16.46-3.21-3.5-6.27-7.06-9.25-10.75-4.14-5.13-8.54-9.97-13.01-14.8-3.26-3.53-6.42-7.12-9.55-10.76-.42-.49-.85-.98-1.28-1.49-4.55-5.29-9.1-10.58-13.58-15.92-.92-1.09-1.84-2.19-2.76-3.28-.44-.53-.89-1.06-1.35-1.6-3.93-4.66-8.05-9.13-12.23-13.56q-1.8-2.14-1.8-4.14c-5.08.35-7.52,3.08-10.81,6.62-1.07,1.11-2.14,2.22-3.21,3.32q-.77.8-1.56,1.61c-1.73,1.75-3.54,3.36-5.42,4.94-4.09,3.47-7.8,7.28-11.57,11.09-3.41,3.43-6.92,6.67-10.61,9.81-3.09,2.71-5.96,5.65-8.82,8.6-3.01-1.32-4.79-2.62-6.81-5.2-.51-.64-1.02-1.29-1.55-1.95-.54-.69-1.08-1.38-1.64-2.1-1.16-1.46-2.32-2.92-3.48-4.37-.59-.73-1.17-1.47-1.78-2.23-2.6-3.21-5.29-6.34-7.99-9.47-4.24-4.9-8.38-9.87-12.46-14.9-2.6-3.17-5.25-6.29-7.91-9.41-4.27-5.02-8.4-10.12-12.38-15.38-3.68,1.51-5.72,3.65-8.31,6.62-.79.9-1.59,1.81-2.41,2.74q-1.13,1.3-2.28,2.63-.85.96-1.72,1.95c-2.71,3.07-5.38,6.16-8.03,9.28-4.74,5.56-9.49,11.09-14.44,16.46-4.03,4.39-7.79,8.93-11.53,13.56-2.35,2.83-4.79,5.54-7.28,8.25-4.02,4.37-7.8,8.88-11.53,13.5-3.94,4.8-8.04,9.46-12.12,14.15-3.28,3.77-6.54,7.56-9.79,11.36q-.71.83-1.43,1.67c-.91,1.06-1.82,2.12-2.72,3.18-2.47,2.88-4.94,5.77-7.41,8.65,0-3.89,1.57-6.62,3.26-10.04.34-.7.68-1.4,1.04-2.13,1.12-2.3,2.26-4.6,3.39-6.9.78-1.6,1.56-3.19,2.34-4.79,5.08-10.38,10.24-20.73,15.43-31.06,4.84-9.65,9.5-19.38,14.13-29.14q12.12-25.49,18.32-37.77c3.68-7.32,7.19-14.72,10.73-22.12,2.59-5.42,5.21-10.82,7.92-16.19,4.98-9.88,9.68-19.89,14.44-29.88.98-2.05,1.95-4.1,2.93-6.15,2.36-4.95,4.71-9.9,7.07-14.85h2c5.74,11.39,11.47,22.79,16.94,34.31,5.43,11.44,11,22.81,16.56,34.19,9.99,20.43,19.85,40.91,29.5,61.5q4.16.43,7.04-2.6c1.18-1.19,2.36-2.39,3.52-3.6.63-.63,1.25-1.27,1.9-1.92,2-2.03,3.99-4.08,5.98-6.13,1.99-2.03,3.98-4.06,5.97-6.08,1.24-1.26,2.47-2.52,3.71-3.79,3.14-3.21,6.3-6.16,9.89-8.87-1.72-4.57-3.88-8.88-6.07-13.24-.4-.8-.8-1.6-1.21-2.42-1.28-2.55-2.56-5.1-3.84-7.65-.84-1.67-1.68-3.34-2.52-5.02-1.58-3.15-3.16-6.3-4.74-9.44-3.19-6.36-6.38-12.73-9.56-19.1-1.72-3.43-3.43-6.86-5.15-10.29-.7-1.4-1.4-2.81-2.1-4.21l-1.08-2.16q-22.54-45.08-23.6-47.21c-.69-1.38-1.38-2.76-2.07-4.13-1.75-3.51-3.51-7.01-5.26-10.52-.36-.72-.72-1.44-1.09-2.18-.68-1.36-1.36-2.72-2.04-4.08-2.74-5.49-5.57-10.92-8.43-16.34-4.86-9.24-9.56-18.55-14.15-27.93-.46-.94-.93-1.88-1.41-2.85q-.6-1.23-1.21-2.48c-1.99-3.69-4.22-7.21-6.48-10.75-.5,1.01-1.01,2.01-1.53,3.05q-9.37,18.75-10.57,21.13c-.8,1.59-1.59,3.18-2.39,4.77-1.92,3.84-3.84,7.68-5.76,11.52-.36.71-.71,1.42-1.08,2.15-.66,1.32-1.32,2.63-1.97,3.95-1.93,3.86-3.85,7.73-5.77,11.6-3.05,6.16-6.2,12.26-9.44,18.32-5.18,9.73-10.17,19.54-14.87,29.5-.42.88-.83,1.76-1.26,2.67-.78,1.67-1.57,3.33-2.34,5.01-2.72,5.8-5.66,11.46-8.66,17.12-5.15,9.73-10.12,19.54-15.03,29.4-1.4,2.81-2.81,5.62-4.22,8.43-4.81,9.62-9.55,19.26-14.09,29.01-2.34,5-4.85,9.89-7.47,14.75-3.82,7.1-7.34,14.31-10.76,21.62-2.41,5.14-4.89,10.23-7.44,15.3-.35.7-.7,1.39-1.06,2.11-1.1,2.2-2.2,4.4-3.31,6.6-.69,1.37-1.38,2.75-2.07,4.12-1.4,2.79-2.8,5.59-4.2,8.38-2.77,5.52-5.53,11.04-8.29,16.56-2.08,4.15-4.16,8.31-6.24,12.46-8.45,16.86-16.9,33.72-24.96,50.78q-.55,1.15-1.11,2.32c-.81,1.7-1.6,3.41-2.38,5.12-.42.9-.84,1.8-1.28,2.73q-.56,1.22-1.13,2.47c-1.99,3.05-4.29,3.81-7.72,4.7-.76.15-1.52.31-2.3.47-.77.19-1.54.39-2.34.59q-5.27,1.29-7.97,1.29c1.57-5.26,3.86-9.97,6.32-14.86.44-.87.87-1.74,1.32-2.64,1.44-2.87,2.89-5.75,4.33-8.62,1.01-2.01,2.02-4.03,3.03-6.04,2.66-5.31,5.32-10.61,7.99-15.92,4.25-8.45,8.49-16.9,12.72-25.35,1.47-2.93,2.94-5.85,4.41-8.78,4.85-9.65,9.59-19.33,14.14-29.12,4.07-8.75,8.49-17.33,12.96-25.88,7.13-13.66,14-27.39,20.59-41.32,3.65-7.67,7.47-15.26,11.44-22.77,6.84-12.94,13.43-26,19.97-39.1.46-.92.92-1.83,1.39-2.78,3.34-6.69,6.68-13.39,10.01-20.08,3.35-6.72,6.7-13.44,10.05-20.16,1.32-2.64,2.63-5.28,3.94-7.92,4.55-9.13,9.19-18.2,13.97-27.22,3.59-6.77,7.03-13.61,10.43-20.47,1.7-3.44,3.42-6.88,5.13-10.32.34-.69.69-1.38,1.04-2.1,6.82-13.69,13.69-27.35,20.9-40.84,1.35-2.55,2.63-5.14,3.91-7.73Z"/>
  <path class="st4" d="M826,733q.7,1.71,1.18,3.95c.19.82.37,1.65.56,2.49.19.89.38,1.77.57,2.69,1.85,8.08,4.28,15.44,7.65,23q1.04,2.87.04,5.87c-8.09-4.85-10.78-12.34-14.81-20.56-.53-1.04-1.06-2.08-1.6-3.15-.49-1-.98-2-1.48-3.04-.45-.91-.9-1.82-1.37-2.76q-.74-2.49-.02-4.7c2.58-3.59,5.04-5.2,9.28-3.79Z"/>
  <path class="st1" d="M199,732c3.46,1.25,6.15,2.68,9,5-.58,3.42-1.44,6.3-2.93,9.43q-.58,1.22-1.17,2.47c-.4.84-.81,1.67-1.22,2.54q-.59,1.25-1.19,2.53c-3.74,7.85-6.56,13.07-14.5,17.04,1.48-5.39,3.21-10.62,5.26-15.82,2.61-6.65,4.53-12.88,5.42-20.02q.32-2.16,1.32-3.16Z"/>
  <path class="st9" d="M707,580c4.45,4.16,7.94,8.77,11.5,13.69.61.83,1.21,1.66,1.84,2.52,1.89,2.59,3.78,5.19,5.66,7.79.59.81,1.18,1.63,1.79,2.47,2.77,3.82,5.53,7.64,8.28,11.47,1.82,2.53,3.65,5.04,5.52,7.52.73.98,1.47,1.96,2.22,2.97.63.82,1.25,1.65,1.89,2.5q1.29,2.07,1.29,5.07c-7.05-7.65-14.02-15.34-20.78-23.25-.5-.59-1.01-1.18-1.53-1.79-1.05-1.22-2.09-2.45-3.13-3.67-3.13-3.65-6.31-7.24-9.56-10.79-3.04-3.34-5.66-6.64-8-10.5h2v-2h2l-1-4Z"/>
  <path class="st2" d="M209,700c2.19,1.05,3.96,1.97,5.81,3.56,2.96,1.95,5.7,2.1,9.19,2.44-1.67,6.16-4.88,11.48-8,17-3.89-1.49-6.53-2.52-9-6-.61-5.95.51-11.24,2-17Z"/>
  <path class="st5" d="M814,700c3.42,3.42,3.13,8.66,3.3,13.33-.33,3.93-.68,5.09-3.62,7.61-2.11,1.4-3.15,2.06-5.69,2.06-1.17-2.27-2.34-4.54-3.5-6.81-.33-.64-.67-1.29-1.01-1.95-1.49-2.94-2.49-4.9-2.49-8.24q.9-.27,1.83-.55,6.03-1.87,11.17-5.45Z"/>
  <path class="st0" d="M443,564l1,4h4v-2c1.32.33,2.64.66,4,1-2.83,1.9-5.67,3.79-8.5,5.69-.79.53-1.58,1.06-2.4,1.61-4.98,3.33-10,6.57-15.1,9.71,1.79-3.89,4.31-6.5,7.38-9.44,3.47-3.34,6.69-6.73,9.62-10.56Z"/>
</svg>